<mxfile host="app.diagrams.net" modified="2022-05-12T02:29:09.905Z" agent="5.0 (Windows NT 10.0; Win64; x64) AppleWebKit/537.36 (KHTML, like Gecko) Chrome/101.0.4951.54 Safari/537.36" etag="l9iXW9k5hKqNqF2eanL6" version="18.0.2" type="github">
  <diagram id="cJQ1Rg3KpCaDCgTKnxbl" name="Page-1">
    <mxGraphModel dx="824" dy="660" grid="1" gridSize="10" guides="1" tooltips="1" connect="1" arrows="1" fold="1" page="1" pageScale="1" pageWidth="827" pageHeight="1169" math="0" shadow="0">
      <root>
        <mxCell id="0" />
        <mxCell id="1" parent="0" />
      </root>
    </mxGraphModel>
  </diagram>
</mxfile>
